<svg width="523" height="451" viewBox="0 0 523 451" fill="none" xmlns="http://www.w3.org/2000/svg">
<path opacity="0.3" d="M252.321 389.862C366.675 389.862 459.377 377.826 459.377 362.979C459.377 348.132 366.675 336.097 252.321 336.097C137.968 336.097 45.2657 348.132 45.2657 362.979C45.2657 377.826 137.968 389.862 252.321 389.862Z" fill="#E6E6E6"/>
<path d="M108.523 201.983C108.523 201.983 77.757 218.843 73.743 257.693C69.729 296.543 58.3929 371.566 141.851 367.287C225.308 363.009 264.664 357.683 244.986 284.725C225.308 211.767 108.523 201.983 108.523 201.983Z" fill="#FFD200"/>
<path opacity="0.09" d="M105.371 222.164C104.509 227.647 105.106 233.299 107.085 238.389C109.065 243.478 112.335 247.77 116.472 250.707C127.795 259.249 145.237 289.602 158.744 304.951C160.851 307.342 162.517 310.194 163.64 313.337C164.763 316.481 165.321 319.851 165.281 323.246C165.281 326.014 166.262 329.081 169.452 332.073C178.84 340.854 218.235 345.237 240.266 318.22C262.298 291.203 233.245 277.829 233.245 277.829L136.411 217.856L105.371 222.164Z" fill="black"/>
<path d="M319.422 354.422C319.422 354.422 321.475 360.406 326.627 361.693C331.778 362.979 334.576 370.279 323.319 369.172C312.061 368.065 305.877 370.01 307.498 362.934C309.119 355.858 308.387 354.796 308.387 354.796L319.422 354.422Z" fill="#F4A28C"/>
<path d="M243.823 349.441C243.823 349.441 242.96 355.739 246.791 359.912C250.622 364.086 249.811 371.88 240.645 364.4C231.48 356.92 225.269 354.961 229.806 349.815C234.343 344.668 234.186 343.322 234.186 343.322L243.823 349.441Z" fill="#F4A28C"/>
<path d="M253.655 259.907C253.655 259.907 322.495 260.715 321.828 354.647L305.589 357.803C305.589 357.803 302.464 258.606 213.005 305.863L217.673 266.789L253.655 259.907Z" fill="#24285B"/>
<path opacity="0.09" d="M253.655 259.907C253.655 259.907 322.495 260.715 321.828 354.647L305.589 357.803C305.589 357.803 302.464 258.606 213.005 305.863L217.673 266.789L253.655 259.907Z" fill="black"/>
<path d="M259.055 173.44L265.03 175.266L260.781 170.03L259.055 173.44Z" fill="#FFD200"/>
<path d="M165.15 219.935C165.15 219.935 177.049 254.342 206.088 248.284C235.128 242.225 246.163 172.528 246.163 172.528C246.163 172.528 257.643 163.986 252.086 154.457C246.529 144.927 237.494 165.542 237.494 165.542C237.494 165.542 224.982 224.273 197.903 205.23L165.15 219.935Z" fill="#F4A28C"/>
<path opacity="0.09" d="M165.15 219.935C165.15 219.935 177.049 254.342 206.088 248.284C235.128 242.225 246.163 172.528 246.163 172.528C246.163 172.528 257.643 163.986 252.086 154.457C246.529 144.927 237.494 165.542 237.494 165.542C237.494 165.542 224.982 224.273 197.903 205.23L165.15 219.935Z" fill="black"/>
<path d="M165.516 150.044L171.792 151.54C171.792 151.54 220.301 181.668 211.279 211.842C202.257 242.015 221.961 270.663 221.961 270.663L179.781 304.652C179.781 304.652 124.683 273.371 132.934 187.203C132.934 187.203 136.764 147.067 165.516 150.044Z" fill="#68E1FD"/>
<path d="M276.991 167.078L269.037 162.702L236.384 240.399L244.338 244.775L276.991 167.078Z" fill="#E6E6E6"/>
<path opacity="0.58" d="M389.635 348.169C389.635 348.169 376.246 343.98 373.331 329.724C373.331 329.724 394.081 324.922 394.669 349.426L389.635 348.169Z" fill="#68E1FD"/>
<path opacity="0.73" d="M391.243 346.673C391.243 346.673 381.882 329.754 390.119 313.926C390.119 313.926 405.9 325.386 398.892 346.718L391.243 346.673Z" fill="#68E1FD"/>
<path d="M393.649 346.673C393.649 346.673 398.591 328.796 413.536 325.415C413.536 325.415 416.347 337.024 403.861 346.718L393.649 346.673Z" fill="#68E1FD"/>
<path d="M383.934 346.239L386.654 367.497L403.756 367.572L406.279 346.344L383.934 346.239Z" fill="#24285B"/>
<path opacity="0.66" d="M360.595 52.402H265.697V128.427H360.595V52.402Z" fill="#E6E6E6"/>
<path opacity="0.43" d="M445.74 158.9H360.033V227.564H445.74V158.9Z" fill="#E6E6E6"/>
<path d="M290.736 87.7367C296.852 87.7367 301.81 82.0638 301.81 75.0659C301.81 68.068 296.852 62.395 290.736 62.395C284.619 62.395 279.661 68.068 279.661 75.0659C279.661 82.0638 284.619 87.7367 290.736 87.7367Z" fill="#E6E6E6"/>
<path opacity="0.45" d="M346.553 64.3099H315.369V113.871H346.553V64.3099Z" fill="#C1C1C1"/>
<path d="M302.987 97.251H281.57V113.871H302.987V97.251Z" fill="#C1C1C1"/>
<path d="M163.215 112.196L154.481 147.426L171.792 151.54L171.204 124.253L163.215 112.196Z" fill="#F4A28C"/>
<path opacity="0.31" d="M171.557 130.222C169.456 129.285 167.639 127.668 166.327 125.57C166.327 125.57 165.883 132.257 171.557 139.692V130.222Z" fill="#CE8172"/>
<path d="M181.141 113.303C181.141 113.303 180.278 124.433 177.532 131.389C177.267 132.067 176.887 132.678 176.413 133.186C175.939 133.694 175.382 134.089 174.773 134.348C174.165 134.607 173.517 134.725 172.869 134.695C172.22 134.664 171.583 134.486 170.995 134.171C167.948 132.541 164.248 129.324 164.078 123.296L162.692 113.108C162.605 111.034 163.081 108.981 164.055 107.229C165.029 105.477 166.453 104.113 168.131 103.325C174.277 99.839 181.965 106.481 181.141 113.303Z" fill="#F4A28C"/>
<path d="M169.465 120.573C169.465 120.573 170.053 116.325 167.216 116.085C164.379 115.846 163.503 121.979 167.216 123.311L169.465 120.573Z" fill="#F4A28C"/>
<path d="M180.278 120.199L182.305 124.986C182.419 125.259 182.472 125.56 182.457 125.861C182.443 126.163 182.362 126.456 182.223 126.712C182.083 126.969 181.89 127.181 181.659 127.329C181.429 127.477 181.17 127.556 180.906 127.559H177.114L180.278 120.199Z" fill="#F4A28C"/>
<path d="M260.787 170.028L230.917 150.296L229.197 153.703L259.068 173.435L260.787 170.028Z" fill="#24285B"/>
<path opacity="0.18" d="M189.457 285.937L179.781 304.651C179.781 304.651 144.701 285.204 134.646 232.576C124.592 179.948 157.763 200.458 157.763 200.458L189.457 285.937Z" fill="black"/>
<path d="M179.781 304.651C179.781 304.651 212.286 228.836 260.349 229.12C308.413 229.404 245.967 351.46 245.967 351.46L230.12 344.085C230.12 344.085 253.655 291.726 247.667 274.867C241.678 258.007 232.526 374.304 179.781 304.651Z" fill="#24285B"/>
<path d="M151.971 154.292C151.971 154.292 166.432 145.9 173.78 162.954C181.128 180.008 175.336 253.355 205.16 257.199C234.984 261.044 250.112 225.5 250.112 225.5C250.112 225.5 252.57 210.54 256.649 208.057C260.729 205.574 264.324 221.296 256.649 230.497C256.649 230.497 243.496 287.029 201.734 288.301C159.973 289.572 110.798 193.008 151.971 154.292Z" fill="#F4A28C"/>
<path d="M181.206 98.7918C181.206 98.7918 190.712 111.582 178.408 114.26C166.105 116.938 163.568 119.466 164.745 133.708C165.922 147.949 170.799 161.069 154.481 170C138.164 178.931 152.193 193.935 149.186 211.438C146.179 228.941 131.835 241.028 113.465 229.09C95.0945 217.152 83.7585 186.605 103.449 168.309C123.14 150.014 147.904 145.571 147.904 116.07C147.904 86.5698 168.484 85.0439 181.206 98.7918Z" fill="#24285B"/>
<path opacity="0.43" d="M387.268 209.224C394.591 209.224 400.526 202.432 400.526 194.055C400.526 185.677 394.591 178.886 387.268 178.886C379.946 178.886 374.01 185.677 374.01 194.055C374.01 202.432 379.946 209.224 387.268 209.224Z" fill="#C1C1C1"/>
<path opacity="0.43" d="M408.724 170.808H385.673V197.181H408.724V170.808Z" fill="#C1C1C1"/>
<path opacity="0.43" d="M433.449 170.808H416.256V214.52H433.449V170.808Z" fill="#C1C1C1"/>
<path d="M259.821 229.505L247.641 224.192L245.018 232.061L257.199 237.375L259.821 229.505Z" fill="#68E1FD"/>
<path opacity="0.44" d="M259.821 229.505L247.641 224.192L245.018 232.061L257.199 237.375L259.821 229.505Z" fill="white"/>
</svg>
